<svg
    width="307.16"
    height="61.4"
    viewBox="0 0 370 73.97"
    xmlns="http://www.w3.org/2000/svg"
    fill="white"
  >
    <g transform="matrix(1.11225, 0, 0, 1.11225, -6.22, -16.91)">
      <path d="M21.6,61.5l10.7,6.1L43,61.4l-10.7-6.1L21.6,61.5z M44,63.1l-10.7,6.2v12.4L44,75.5V63.1z M20.7,63.2v12.3l10.7,6.2V69.4L20.7,63.2z" />
      <path d="M56.6,61.5l10.7,6.1L78,61.4l-10.7-6.1L56.6,61.5z M79,63.1l-10.7,6.2v12.4L79,75.5V63.1z M55.6,63.2v12.3l10.7,6.2V69.4L55.6,63.2z" />
      <path d="M45.3,15.2c-6.8-0.1-10.5,8.2-10.5,16.7c0,7.6,3.6,13.6,10.2,18.8l-1.7,1.7h5.2v-5.2l-1.9,1.9c-3.4-2.6-9.5-7.6-9.5-17.1c0-7.9,3.3-14.5,8.2-14.5c6.7,0,12.1,9,12.1,20c0,11.5-6.7,19.5-12.4,22.8l1.7,0.4l-0.6,1.6c6.2-3.6,13.5-12.3,13.5-24.8C59.6,25.2,53.2,15.4,45.3,15.2z" />
      <path d="M81.1,15.2c-6.8-0.1-10.5,8.2-10.5,16.7c0,7.6,3.6,13.6,10.2,18.8l-1.7,1.7h5.2v-5.2l-1.9,1.9c-3.4-2.6-9.5-7.6-9.5-17.1c0-7.9,3.3-14.5,8.2-14.5c6.7,0,12.1,9,12.1,20c0,11.5-6.7,19.5-12.4,22.8l1.7,0.4l-0.6,1.6c6.2-3.6,13.5-12.3,13.5-24.8C95.5,25.2,89,15.4,81.1,15.2z" />
      <path d="M7.8,39.8c-0.3,9.5,6,15.6,9.4,18.2l1.9-1.9v5.2h-5.2l1.7-1.7c-6.6-5.2-10.2-12.4-10-19.9l1.1,1L7.8,39.8z" />
    </g>
    <g transform="matrix(2.04516, 0, 0, 2.04516, 120, 10.77)">
      <path d="M7.7 15.16l1.14-1.06 6.42 5.9h-6.9l-5.24-4.8 8.12-7.66h-2.26l-5.86 5.66V7.48H1.56v10.9h2.76l1.72 1.56H0v-14.02h4.68v3.44l3.68-3.44h6.82l-9.78 9.2 3.56 3.26h2.3zM28.68 12.84V5.98h4.68v14.02h-4.68l-7.5-8.68v-2.4l8.22 9.52h2.4v-10.9h-1.56v9.5l-8.22-9.5h-2.4v10.9h1.56v-4.72l1.56 1.8v4.48h-4.68V5.98h4.68zM51.34 5.98v6.44c0 4.16-3.4 7.58-7.6 7.58-4.12 0-7.42-3.24-7.58-7.32v-6.7h4.58v6.44c0 1.66 1.34 3 3 3s2.94-1.3 3-2.92v-6.52h1.52v6.44c0 2.48-2.02 4.52-4.52 4.52-2.46 0-4.5-2-4.5-4.48h-0.02v-4.94h-1.5v5c0.06 3.28 2.74 5.92 6.02 5.92 3.34 0 6.02-2.7 6.02-6.02v-6.44h1.58zM55.7 7.54v7.78h13.82v4.68H54.14v-1.56h13.84v-1.56H54.14V5.98h4.68v7.8h-1.56v-6.24H55.7zM72.84 7.54v7.78h13.82v4.68H71.28v-1.56h13.84v-1.56H71.28V5.98h4.68v7.8h-1.56v-6.24h-1.56zM114.76 5.98v4.7h-8.6c-1.18 0.1-2.08 1.12-2.08 2.32s0.9 2.18 2.08 2.32h5.48v1.56h-5.48c-2.02-0.16-3.62-1.82-3.62-3.9 0-2 1.54-3.7 3.54-3.86h7.12v-1.58h-7.04v0.02c-2.86 0.16-5.14 2.52-5.14 5.44 0 2.9 2.28 5.28 5.14 5.44h7.04v-3.12h1.56v4.68h-8.6c-3.74-0.16-6.7-3.24-6.7-7 0-3.78 2.96-6.84 6.7-7zM122.24 20h-4.68V5.98h4.68v10.9h-1.56v-9.34h-1.56v10.9h3.12V20z" />
    </g>
  </svg>